<svg width="20" height="20" viewBox="0 0 20 20" fill="none" xmlns="http://www.w3.org/2000/svg">
<path fill-rule="evenodd" clip-rule="evenodd" d="M11.154 9.99624C11.154 10.6335 10.6374 11.1501 10.0001 11.1501C9.36288 11.1501 8.84629 10.6335 8.84629 9.99624C8.84629 9.359 9.36288 8.84241 10.0001 8.84241C10.6374 8.84241 11.154 9.359 11.154 9.99624ZM5.76941 8.84241C5.13217 8.84241 4.61558 9.359 4.61558 9.99624C4.61558 10.6335 5.13217 11.1501 5.76941 11.1501C6.40665 11.1501 6.92324 10.6335 6.92324 9.99624C6.92324 9.359 6.40665 8.84241 5.76941 8.84241ZM14.2308 8.84241C13.5936 8.84241 13.077 9.359 13.077 9.99624C13.077 10.6335 13.5936 11.1501 14.2308 11.1501C14.8681 11.1501 15.3847 10.6335 15.3847 9.99624C15.3847 9.359 14.8681 8.84241 14.2308 8.84241ZM20 9.99624C20.0008 13.508 18.1593 16.7628 15.1488 18.571C12.1383 20.3791 8.39992 20.4755 5.30018 18.825L2.02619 19.9163C1.47332 20.1007 0.86374 19.9568 0.45164 19.5447C0.0395403 19.1326 -0.104317 18.523 0.080057 17.9702L1.17139 14.6962C-0.78257 11.0225 -0.257447 6.52277 2.48993 3.39774C5.2373 0.272712 9.63271 -0.824458 13.5264 0.642845C17.4201 2.11015 19.9983 5.83525 20 9.99624ZM18.4616 9.99624C18.4605 6.43889 16.2346 3.26205 12.8914 2.04651C9.54815 0.830967 5.80164 1.83633 3.51611 4.56234C1.23058 7.28835 0.894162 11.1528 2.67426 14.2327C2.78452 14.4236 2.80763 14.6525 2.73772 14.8616L1.53869 18.4577L5.1348 17.2587C5.21313 17.2319 5.29531 17.2183 5.37807 17.2183C5.51317 17.2185 5.64582 17.2543 5.76268 17.3221C8.38077 18.8369 11.6083 18.8389 14.2283 17.3275C16.8483 15.816 18.4623 13.021 18.4616 9.99624Z" fill="#94C7A6"/>
</svg>
