<svg width="14" height="14" viewBox="0 0 14 14" fill="none" xmlns="http://www.w3.org/2000/svg">
<path fill-rule="evenodd" clip-rule="evenodd" d="M14 2.54544C14 3.50381 12.5435 4.33849 10.3915 4.77274C12.5435 5.20695 14 6.04163 14 7C14 7.95837 12.5435 8.79305 10.3915 9.22726C12.5435 9.6615 14 10.4962 14 11.4546C14 12.8604 10.866 14 6.99996 14C3.13396 14 -4.26829e-05 12.8604 -4.26829e-05 11.4546C-4.26829e-05 10.4962 1.45646 9.6615 3.60846 9.22726C1.45646 8.79305 -4.26829e-05 7.95837 -4.26829e-05 7C-4.26829e-05 6.04163 1.45646 5.20695 3.60846 4.77274C1.45646 4.33849 -4.26829e-05 3.50381 -4.26829e-05 2.54544C-4.26829e-05 1.13964 3.13396 -6.25849e-07 6.99996 -6.25849e-07C10.866 -6.25849e-07 14 1.13964 14 2.54544Z" fill="white"/>
</svg>
