<svg width="12" height="16" viewBox="0 0 12 16" fill="none" xmlns="http://www.w3.org/2000/svg">
<path fill-rule="evenodd" clip-rule="evenodd" d="M10.2402 0H1.28003C0.573087 0 0 0.573087 0 1.28003V15.3603C0.000115725 15.5929 0.126421 15.8071 0.329894 15.9198C0.533368 16.0326 0.781972 16.026 0.97922 15.9027L5.76012 12.9147L10.5418 15.9027C10.739 16.0256 10.9873 16.0319 11.1905 15.9192C11.3937 15.8066 11.5199 15.5927 11.5202 15.3603V1.28003C11.5202 0.573087 10.9471 0 10.2402 0ZM10.2402 1.28003V10.3658L6.09852 7.77776C5.89099 7.64804 5.62765 7.64804 5.42011 7.77776L1.28003 10.365V1.28003H10.2402ZM6.09852 11.6178C5.89099 11.4881 5.62765 11.4881 5.42011 11.6178L1.28003 14.2059V11.8746L5.76012 9.07458L10.2402 11.8746V14.2059L6.09852 11.6178Z" fill="white"/>
</svg>
