<svg width="17" height="17" viewBox="0 0 17 17" fill="none" xmlns="http://www.w3.org/2000/svg">
<path fill-rule="evenodd" clip-rule="evenodd" d="M16.8087 15.8844L12.7208 11.7974C15.1822 8.84241 14.8839 4.47414 12.0438 1.88111C9.20369 -0.711924 4.82638 -0.612443 2.107 2.10694C-0.612383 4.82632 -0.711864 9.20363 1.88117 12.0437C4.4742 14.8839 8.84247 15.1821 11.7975 12.7208L15.8845 16.8086C16.1397 17.0638 16.5534 17.0638 16.8087 16.8086C17.0639 16.5534 17.0639 16.1396 16.8087 15.8844ZM1.32439 7.20257C1.32439 3.95611 3.95617 1.32433 7.20263 1.32433C10.4491 1.32433 13.0809 3.95611 13.0809 7.20257C13.0809 10.449 10.4491 13.0808 7.20263 13.0808C3.95766 13.0772 1.32799 10.4475 1.32439 7.20257Z" fill="white"/>
</svg>
