<svg width="14" height="19" viewBox="0 0 14 19" fill="none" xmlns="http://www.w3.org/2000/svg">
<path fill-rule="evenodd" clip-rule="evenodd" d="M12.1602 0H1.52003C0.68054 0 0 0.680541 0 1.52003V18.2404C0.00013723 18.5166 0.150125 18.771 0.391749 18.9048C0.633374 19.0387 0.928591 19.0309 1.16282 18.8845L6.84013 15.3361L12.5184 18.8845C12.7526 19.0304 13.0474 19.0379 13.2887 18.9041C13.5301 18.7703 13.6799 18.5163 13.6803 18.2404V1.52003C13.6803 0.680541 12.9997 0 12.1602 0ZM12.1602 16.8695L7.24199 13.7962C6.99554 13.6421 6.68283 13.6421 6.43638 13.7962L1.52003 16.8695V1.52003H12.1602V16.8695Z" fill="#94C7A6"/>
</svg>
